<svg xmlns="http://www.w3.org/2000/svg" xmlns:xlink="http://www.w3.org/1999/xlink" width="100" zoomAndPan="magnify" viewBox="0 0 75 84.749999" height="113" preserveAspectRatio="xMidYMid meet" version="1.0"><defs><g/><clipPath id="b3ff7788f8"><path d="M 2 11.816406 L 74.890625 11.816406 L 74.890625 83.574219 L 2 83.574219 Z M 2 11.816406 " clip-rule="nonzero"/></clipPath></defs><path fill="#435ebe" d="M 44.472656 48.519531 C 41.472656 53.847656 35.734375 57.449219 29.152344 57.449219 C 22.570312 57.449219 16.832031 53.847656 13.832031 48.519531 C 14.421875 47.375 15.230469 46.316406 16.21875 45.367188 C 16.628906 44.972656 17.070312 44.597656 17.539062 44.25 C 19.832031 42.523438 22.800781 41.308594 26.125 40.839844 C 26.71875 40.753906 27.328125 40.695312 27.945312 40.660156 C 28.101562 40.65625 28.261719 40.648438 28.425781 40.644531 L 28.410156 40.703125 L 28.316406 41.203125 L 25.84375 52.113281 L 29.152344 55.753906 L 32.460938 52.113281 L 29.988281 41.203125 L 29.890625 40.703125 L 29.878906 40.644531 C 30.042969 40.648438 30.199219 40.65625 30.359375 40.660156 C 30.976562 40.695312 31.582031 40.753906 32.179688 40.839844 C 35.503906 41.308594 38.46875 42.523438 40.765625 44.25 C 42.367188 45.449219 43.640625 46.902344 44.472656 48.519531 " fill-opacity="1" fill-rule="nonzero"/><path fill="#435ebe" d="M 26.714844 38.949219 C 27.140625 39.082031 27.585938 39.183594 28.042969 39.242188 C 28.289062 39.277344 28.539062 39.300781 28.792969 39.3125 C 28.910156 39.316406 29.03125 39.316406 29.152344 39.316406 C 29.273438 39.316406 29.390625 39.316406 29.507812 39.3125 C 29.761719 39.300781 30.015625 39.277344 30.261719 39.242188 C 30.714844 39.183594 31.160156 39.082031 31.585938 38.949219 C 34.917969 37.921875 37.335938 34.835938 37.335938 31.1875 C 37.335938 26.695312 33.671875 23.054688 29.152344 23.054688 C 24.628906 23.054688 20.964844 26.695312 20.964844 31.1875 C 20.964844 34.835938 23.382812 37.921875 26.714844 38.949219 " fill-opacity="1" fill-rule="nonzero"/><g clip-path="url(#b3ff7788f8)"><path fill="#435ebe" d="M 29.152344 17.433594 C 40.636719 17.433594 49.941406 26.683594 49.941406 38.089844 C 49.941406 41.75 48.988281 45.183594 47.308594 48.160156 C 43.753906 54.480469 36.953125 58.746094 29.152344 58.746094 C 21.351562 58.746094 14.550781 54.480469 11 48.160156 C 9.320312 45.183594 8.363281 41.75 8.363281 38.089844 C 8.363281 26.683594 17.671875 17.433594 29.152344 17.433594 Z M 74.109375 79.09375 L 49.726562 54.863281 L 50.6875 53.539062 C 50.933594 53.199219 51.175781 52.847656 51.40625 52.492188 L 51.40625 52.488281 C 54.554688 47.675781 56.035156 41.914062 55.59375 36.128906 C 55.117188 29.847656 52.390625 23.941406 47.914062 19.496094 C 42.910156 14.523438 36.246094 11.785156 29.152344 11.785156 C 22.054688 11.785156 15.394531 14.523438 10.390625 19.496094 C 1.421875 28.40625 0.226562 42.15625 6.8125 52.359375 C 7.816406 53.925781 9.011719 55.40625 10.390625 56.777344 C 11.132812 57.515625 11.914062 58.203125 12.726562 58.839844 C 12.859375 58.945312 12.992188 59.046875 13.125 59.148438 C 16.007812 61.328125 19.285156 62.878906 22.78125 63.726562 C 24.839844 64.230469 26.976562 64.484375 29.152344 64.484375 C 31.324219 64.484375 33.457031 64.230469 35.515625 63.726562 C 38.789062 62.933594 41.878906 61.519531 44.65625 59.53125 L 45.191406 59.148438 L 45.578125 58.871094 L 45.988281 58.578125 L 70.371094 82.808594 C 70.871094 83.304688 71.535156 83.578125 72.242188 83.578125 C 72.949219 83.578125 73.613281 83.304688 74.109375 82.808594 C 74.609375 82.3125 74.882812 81.652344 74.882812 80.949219 C 74.882812 80.25 74.609375 79.589844 74.109375 79.09375 " fill-opacity="1" fill-rule="nonzero"/></g><g fill="#000000" fill-opacity="1"><g transform="translate(29.472469, 1.399049)"><g><path d="M 0.0585938 0 L 0.214844 0 L 0.214844 -0.15625 L 0.0585938 -0.15625 Z M 0.0585938 0 "/></g></g></g></svg>