<svg xmlns="http://www.w3.org/2000/svg" xmlns:xlink="http://www.w3.org/1999/xlink" width="707" zoomAndPan="magnify" viewBox="0 0 530.25 107.999999" height="144" preserveAspectRatio="xMidYMid meet" version="1.0"><defs><g/><clipPath id="0882ee1932"><path d="M 76 0.0976562 L 183.933594 0.0976562 L 183.933594 107.152344 L 76 107.152344 Z M 76 0.0976562 " clip-rule="nonzero"/></clipPath></defs><path fill="#435ebe" d="M 138.761719 54.851562 C 134.316406 62.804688 125.8125 68.175781 116.054688 68.175781 C 106.296875 68.175781 97.792969 62.804688 93.34375 54.851562 C 94.21875 53.144531 95.417969 51.5625 96.882812 50.152344 C 97.488281 49.5625 98.140625 49.003906 98.835938 48.480469 C 102.238281 45.90625 106.636719 44.089844 111.5625 43.394531 C 112.449219 43.269531 113.347656 43.179688 114.261719 43.128906 C 114.5 43.117188 114.734375 43.109375 114.972656 43.101562 L 114.957031 43.191406 L 114.8125 43.933594 L 111.144531 60.214844 L 116.054688 65.648438 L 120.957031 60.214844 L 117.292969 43.933594 L 117.148438 43.191406 L 117.128906 43.101562 C 117.371094 43.109375 117.605469 43.117188 117.84375 43.128906 C 118.753906 43.179688 119.65625 43.269531 120.539062 43.394531 C 125.464844 44.089844 129.867188 45.90625 133.269531 48.480469 C 135.644531 50.273438 137.53125 52.441406 138.761719 54.851562 " fill-opacity="1" fill-rule="nonzero"/><path fill="#435ebe" d="M 112.441406 40.578125 C 113.074219 40.773438 113.734375 40.921875 114.40625 41.015625 C 114.773438 41.0625 115.144531 41.097656 115.523438 41.113281 C 115.695312 41.125 115.871094 41.125 116.050781 41.125 C 116.230469 41.125 116.40625 41.125 116.582031 41.113281 C 116.957031 41.097656 117.332031 41.0625 117.695312 41.015625 C 118.371094 40.921875 119.03125 40.773438 119.664062 40.578125 C 124.601562 39.039062 128.1875 34.4375 128.1875 28.992188 C 128.1875 22.292969 122.753906 16.863281 116.050781 16.863281 C 109.347656 16.863281 103.917969 22.292969 103.917969 28.992188 C 103.917969 34.4375 107.5 39.039062 112.441406 40.578125 " fill-opacity="1" fill-rule="nonzero"/><g clip-path="url(#0882ee1932)"><path fill="#435ebe" d="M 116.054688 8.476562 C 133.074219 8.476562 146.871094 22.273438 146.871094 39.292969 C 146.871094 44.75 145.457031 49.875 142.964844 54.320312 C 137.695312 63.742188 127.617188 70.113281 116.054688 70.113281 C 104.488281 70.113281 94.410156 63.742188 89.140625 54.320312 C 86.652344 49.875 85.234375 44.75 85.234375 39.292969 C 85.234375 22.273438 99.035156 8.476562 116.054688 8.476562 Z M 182.699219 100.464844 L 146.550781 64.316406 L 147.972656 62.34375 C 148.34375 61.832031 148.699219 61.308594 149.039062 60.777344 C 153.707031 53.59375 155.90625 44.996094 155.25 36.367188 C 154.542969 26.996094 150.5 18.1875 143.863281 11.550781 C 136.449219 4.136719 126.570312 0.0507812 116.054688 0.0507812 C 105.53125 0.0507812 95.65625 4.136719 88.242188 11.550781 C 74.949219 24.84375 73.175781 45.363281 82.933594 60.578125 C 84.425781 62.917969 86.199219 65.128906 88.242188 67.171875 C 89.34375 68.273438 90.5 69.300781 91.703125 70.25 C 91.898438 70.40625 92.097656 70.558594 92.292969 70.707031 C 96.566406 73.960938 101.425781 76.277344 106.609375 77.542969 C 109.660156 78.289062 112.828125 78.671875 116.054688 78.671875 C 119.269531 78.671875 122.433594 78.289062 125.488281 77.542969 C 130.335938 76.359375 134.921875 74.246094 139.035156 71.28125 L 139.828125 70.707031 L 140.402344 70.296875 L 141.007812 69.859375 L 177.15625 106.003906 C 177.898438 106.746094 178.882812 107.152344 179.925781 107.152344 C 180.972656 107.152344 181.957031 106.746094 182.699219 106.003906 C 183.441406 105.265625 183.84375 104.28125 183.84375 103.234375 C 183.84375 102.1875 183.441406 101.203125 182.699219 100.464844 " fill-opacity="1" fill-rule="nonzero"/></g><g fill="#435ebe" fill-opacity="1"><g transform="translate(0.0914993, 73.145252)"><g><path d="M 17.121094 -10.375 L 17.121094 -51.882812 L 5.929688 -51.882812 L 5.929688 0 L 37.058594 0 L 37.058594 -10.375 Z M 17.121094 -10.375 "/></g></g></g><g fill="#435ebe" fill-opacity="1"><g transform="translate(68.420917, 73.145252)"><g/></g></g><g fill="#435ebe" fill-opacity="1"><g transform="translate(115.784908, 73.145252)"><g/></g></g><g fill="#435ebe" fill-opacity="1"><g transform="translate(163.148898, 73.145252)"><g/></g></g><g fill="#435ebe" fill-opacity="1"><g transform="translate(210.500246, 73.145252)"><g><path d="M 49.140625 0 L 29.574219 -26.980469 L 47.214844 -51.882812 L 34.167969 -51.882812 L 17.121094 -27.867188 L 17.121094 -51.882812 L 5.929688 -51.882812 L 5.929688 0 L 17.121094 0 L 17.121094 -25.273438 L 35.429688 0 Z M 49.140625 0 "/></g></g></g><g fill="#435ebe" fill-opacity="1"><g transform="translate(288.770134, 73.145252)"><g><path d="M 17.121094 -10.375 L 17.121094 -21.050781 L 35.132812 -21.050781 L 35.132812 -31.203125 L 17.121094 -31.203125 L 17.121094 -41.507812 L 37.058594 -41.507812 L 37.058594 -51.882812 L 5.929688 -51.882812 L 5.929688 0 L 37.875 0 L 37.875 -10.375 Z M 17.121094 -10.375 "/></g></g></g><g fill="#435ebe" fill-opacity="1"><g transform="translate(359.850879, 73.145252)"><g><path d="M 34.464844 0 L 46.992188 0 L 35.503906 -19.566406 C 41.285156 -22.382812 44.988281 -27.867188 44.988281 -34.6875 C 44.988281 -44.695312 37.207031 -51.882812 26.832031 -51.882812 L 5.929688 -51.882812 L 5.929688 0 L 17.121094 0 L 17.121094 -17.640625 L 24.3125 -17.640625 Z M 17.121094 -41.507812 L 26.089844 -41.507812 C 30.832031 -41.507812 33.574219 -38.617188 33.574219 -34.761719 C 33.574219 -30.832031 30.832031 -28.015625 26.089844 -28.015625 L 17.121094 -28.015625 Z M 17.121094 -41.507812 "/></g></g></g><g fill="#435ebe" fill-opacity="1"><g transform="translate(438.491334, 73.145252)"><g><path d="M 23.125 1.039062 C 33.871094 1.039062 42.765625 -4.371094 42.765625 -15.566406 C 42.765625 -27.203125 32.835938 -29.648438 24.976562 -31.648438 C 19.417969 -32.984375 14.972656 -34.09375 14.972656 -37.726562 C 14.972656 -41.136719 18.605469 -42.691406 22.234375 -42.691406 C 26.460938 -42.691406 30.167969 -40.617188 30.167969 -36.097656 L 41.210938 -36.097656 C 41.210938 -46.472656 34.464844 -52.847656 22.53125 -52.847656 C 11.042969 -52.847656 3.707031 -47.214844 3.707031 -37.28125 C 3.707031 -26.089844 13.191406 -23.792969 21.050781 -21.863281 C 26.683594 -20.605469 31.425781 -19.492188 31.425781 -15.417969 C 31.425781 -11.5625 27.277344 -9.339844 23.050781 -9.339844 C 18.457031 -9.339844 14.304688 -11.785156 14.304688 -16.75 L 2.964844 -16.75 C 2.964844 -5.632812 11.191406 1.039062 23.125 1.039062 Z M 23.125 1.039062 "/></g></g></g></svg>