<svg xmlns="http://www.w3.org/2000/svg" xmlns:xlink="http://www.w3.org/1999/xlink" width="382" zoomAndPan="magnify" viewBox="0 0 286.5 73.499998" height="98" preserveAspectRatio="xMidYMid meet" version="1.0"><defs><g/><clipPath id="f147377064"><path d="M 43 0.597656 L 116.046875 0.597656 L 116.046875 72.238281 L 43 72.238281 Z M 43 0.597656 " clip-rule="nonzero"/></clipPath></defs><path fill="#435ebe" d="M 85.640625 37.574219 C 82.644531 42.949219 76.917969 46.578125 70.339844 46.578125 C 63.765625 46.578125 58.039062 42.949219 55.042969 37.574219 C 55.628906 36.421875 56.4375 35.351562 57.425781 34.398438 C 57.832031 34 58.273438 33.621094 58.742188 33.269531 C 61.035156 31.527344 64 30.300781 67.316406 29.832031 C 67.914062 29.746094 68.519531 29.683594 69.132812 29.652344 C 69.292969 29.644531 69.453125 29.636719 69.613281 29.632812 L 69.601562 29.691406 L 69.503906 30.195312 L 67.035156 41.199219 L 70.339844 44.871094 L 73.644531 41.199219 L 71.175781 30.195312 L 71.078125 29.691406 L 71.066406 29.632812 C 71.230469 29.636719 71.386719 29.644531 71.546875 29.652344 C 72.160156 29.683594 72.769531 29.746094 73.363281 29.832031 C 76.683594 30.300781 79.648438 31.527344 81.9375 33.269531 C 83.539062 34.480469 84.8125 35.945312 85.640625 37.574219 " fill-opacity="1" fill-rule="nonzero"/><path fill="#435ebe" d="M 67.90625 27.925781 C 68.332031 28.058594 68.777344 28.160156 69.234375 28.222656 C 69.480469 28.253906 69.730469 28.277344 69.984375 28.289062 C 70.101562 28.296875 70.21875 28.296875 70.339844 28.296875 C 70.460938 28.296875 70.578125 28.296875 70.695312 28.289062 C 70.949219 28.277344 71.203125 28.253906 71.449219 28.222656 C 71.902344 28.160156 72.347656 28.058594 72.773438 27.925781 C 76.101562 26.886719 78.515625 23.777344 78.515625 20.097656 C 78.515625 15.570312 74.855469 11.898438 70.339844 11.898438 C 65.824219 11.898438 62.164062 15.570312 62.164062 20.097656 C 62.164062 23.777344 64.578125 26.886719 67.90625 27.925781 " fill-opacity="1" fill-rule="nonzero"/><g clip-path="url(#f147377064)"><path fill="#435ebe" d="M 70.339844 6.230469 C 81.808594 6.230469 91.105469 15.554688 91.105469 27.058594 C 91.105469 30.746094 90.148438 34.210938 88.472656 37.214844 C 84.921875 43.585938 78.132812 47.886719 70.339844 47.886719 C 62.550781 47.886719 55.761719 43.585938 52.210938 37.214844 C 50.53125 34.210938 49.578125 30.746094 49.578125 27.058594 C 49.578125 15.554688 58.875 6.230469 70.339844 6.230469 Z M 115.242188 68.402344 L 90.886719 43.972656 L 91.847656 42.636719 C 92.09375 42.289062 92.335938 41.9375 92.566406 41.578125 C 95.710938 36.722656 97.191406 30.914062 96.75 25.078125 C 96.273438 18.746094 93.550781 12.792969 89.078125 8.308594 C 84.082031 3.296875 77.425781 0.535156 70.339844 0.535156 C 63.253906 0.535156 56.597656 3.296875 51.601562 8.308594 C 42.648438 17.292969 41.453125 31.160156 48.027344 41.445312 C 49.035156 43.027344 50.226562 44.519531 51.601562 45.902344 C 52.34375 46.644531 53.125 47.339844 53.9375 47.980469 C 54.070312 48.085938 54.199219 48.191406 54.332031 48.292969 C 57.214844 50.488281 60.488281 52.054688 63.980469 52.910156 C 66.035156 53.414062 68.167969 53.671875 70.339844 53.671875 C 72.507812 53.671875 74.640625 53.414062 76.695312 52.910156 C 79.964844 52.109375 83.050781 50.683594 85.824219 48.679688 L 86.359375 48.292969 L 86.746094 48.015625 L 87.15625 47.714844 L 111.507812 72.148438 C 112.007812 72.648438 112.671875 72.921875 113.375 72.921875 C 114.082031 72.921875 114.742188 72.648438 115.242188 72.148438 C 115.742188 71.644531 116.011719 70.980469 116.011719 70.273438 C 116.011719 69.566406 115.742188 68.902344 115.242188 68.402344 " fill-opacity="1" fill-rule="nonzero"/></g><g fill="#435ebe" fill-opacity="1"><g transform="translate(1.003344, 36.245721)"><g><path d="M 9.410156 -5.703125 L 9.410156 -28.515625 L 3.257812 -28.515625 L 3.257812 0 L 20.371094 0 L 20.371094 -5.703125 Z M 9.410156 -5.703125 "/></g></g></g><g fill="#435ebe" fill-opacity="1"><g transform="translate(38.559952, 36.245721)"><g/></g></g><g fill="#435ebe" fill-opacity="1"><g transform="translate(64.592408, 36.245721)"><g/></g></g><g fill="#435ebe" fill-opacity="1"><g transform="translate(90.624864, 36.245721)"><g/></g></g><g fill="#435ebe" fill-opacity="1"><g transform="translate(116.649051, 36.245721)"><g><path d="M 27.011719 0 L 16.253906 -14.828125 L 25.949219 -28.515625 L 18.78125 -28.515625 L 9.410156 -15.316406 L 9.410156 -28.515625 L 3.257812 -28.515625 L 3.257812 0 L 9.410156 0 L 9.410156 -13.890625 L 19.472656 0 Z M 27.011719 0 "/></g></g></g><g fill="#435ebe" fill-opacity="1"><g transform="translate(159.669801, 36.245721)"><g><path d="M 9.410156 -5.703125 L 9.410156 -11.570312 L 19.308594 -11.570312 L 19.308594 -17.152344 L 9.410156 -17.152344 L 9.410156 -22.8125 L 20.371094 -22.8125 L 20.371094 -28.515625 L 3.257812 -28.515625 L 3.257812 0 L 20.816406 0 L 20.816406 -5.703125 Z M 9.410156 -5.703125 "/></g></g></g><g fill="#435ebe" fill-opacity="1"><g transform="translate(198.738842, 36.245721)"><g><path d="M 18.945312 0 L 25.828125 0 L 19.515625 -10.753906 C 22.691406 -12.304688 24.730469 -15.316406 24.730469 -19.066406 C 24.730469 -24.566406 20.449219 -28.515625 14.746094 -28.515625 L 3.257812 -28.515625 L 3.257812 0 L 9.410156 0 L 9.410156 -9.695312 L 13.363281 -9.695312 Z M 9.410156 -22.8125 L 14.339844 -22.8125 C 16.949219 -22.8125 18.453125 -21.226562 18.453125 -19.105469 C 18.453125 -16.949219 16.949219 -15.398438 14.339844 -15.398438 L 9.410156 -15.398438 Z M 9.410156 -22.8125 "/></g></g></g><g fill="#435ebe" fill-opacity="1"><g transform="translate(241.963286, 36.245721)"><g><path d="M 12.710938 0.570312 C 18.617188 0.570312 23.507812 -2.402344 23.507812 -8.554688 C 23.507812 -14.953125 18.046875 -16.296875 13.730469 -17.394531 C 10.671875 -18.128906 8.230469 -18.738281 8.230469 -20.738281 C 8.230469 -22.609375 10.226562 -23.464844 12.222656 -23.464844 C 14.542969 -23.464844 16.582031 -22.324219 16.582031 -19.839844 L 22.652344 -19.839844 C 22.652344 -25.542969 18.945312 -29.046875 12.386719 -29.046875 C 6.070312 -29.046875 2.035156 -25.949219 2.035156 -20.492188 C 2.035156 -14.339844 7.25 -13.078125 11.570312 -12.019531 C 14.667969 -11.324219 17.273438 -10.714844 17.273438 -8.472656 C 17.273438 -6.355469 14.992188 -5.132812 12.671875 -5.132812 C 10.144531 -5.132812 7.863281 -6.476562 7.863281 -9.207031 L 1.628906 -9.207031 C 1.628906 -3.097656 6.152344 0.570312 12.710938 0.570312 Z M 12.710938 0.570312 "/></g></g></g></svg>